<mxfile host="Electron" modified="2023-06-26T04:47:58.862Z" agent="Mozilla/5.0 (X11; Linux x86_64) AppleWebKit/537.36 (KHTML, like Gecko) draw.io/21.5.0 Chrome/112.0.5615.204 Electron/24.5.1 Safari/537.36" etag="zAWwYof6y2CaPrjG_Ght" version="21.5.0" type="device">
  <diagram name="Page-1" id="AV-sRW5_SawkQOjBC835">
    <mxGraphModel dx="1257" dy="723" grid="1" gridSize="10" guides="1" tooltips="1" connect="1" arrows="1" fold="1" page="1" pageScale="1" pageWidth="2500" pageHeight="2500" math="0" shadow="0">
      <root>
        <mxCell id="0" />
        <mxCell id="1" parent="0" />
        <mxCell id="FA8MQbHwzfT2Bc9t9foA-38" value="" style="rounded=0;whiteSpace=wrap;html=1;fontSize=13;fillColor=#f5f5f5;strokeColor=#666666;fontColor=#333333;" vertex="1" parent="1">
          <mxGeometry x="1310" y="117.5" width="230" height="90" as="geometry" />
        </mxCell>
        <mxCell id="FA8MQbHwzfT2Bc9t9foA-41" value="Publisher" style="rounded=0;whiteSpace=wrap;html=1;fontSize=16;fillColor=#f5f5f5;strokeColor=#666666;fontColor=#333333;fontStyle=1" vertex="1" parent="1">
          <mxGeometry x="1310" y="87.5" width="230" height="30" as="geometry" />
        </mxCell>
        <mxCell id="FA8MQbHwzfT2Bc9t9foA-45" value="ticket Publisher" style="rounded=0;whiteSpace=wrap;html=1;fontSize=14;fontStyle=0;fillColor=#dae8fc;strokeColor=#6c8ebf;" vertex="1" parent="1">
          <mxGeometry x="1325" y="127.5" width="200" height="62.5" as="geometry" />
        </mxCell>
        <mxCell id="FA8MQbHwzfT2Bc9t9foA-48" style="edgeStyle=orthogonalEdgeStyle;rounded=0;orthogonalLoop=1;jettySize=auto;html=1;exitX=1;exitY=0.5;exitDx=0;exitDy=0;fontSize=14;entryX=0;entryY=0.145;entryDx=0;entryDy=0;entryPerimeter=0;" edge="1" parent="1" source="FA8MQbHwzfT2Bc9t9foA-49" target="FA8MQbHwzfT2Bc9t9foA-59">
          <mxGeometry relative="1" as="geometry">
            <mxPoint x="1840" y="159.90476190476193" as="targetPoint" />
          </mxGeometry>
        </mxCell>
        <mxCell id="FA8MQbHwzfT2Bc9t9foA-49" value="&lt;b&gt;ticket:created&lt;br&gt;&lt;/b&gt;data : {id:123 , title: &quot;concert&quot;, price:20 }" style="rounded=0;whiteSpace=wrap;html=1;fontSize=14;fillColor=#f8cecc;strokeColor=#b85450;" vertex="1" parent="1">
          <mxGeometry x="1590" y="130" width="220" height="70" as="geometry" />
        </mxCell>
        <mxCell id="FA8MQbHwzfT2Bc9t9foA-51" value="" style="rounded=0;whiteSpace=wrap;html=1;fontSize=13;fillColor=#f5f5f5;strokeColor=#666666;fontColor=#333333;" vertex="1" parent="1">
          <mxGeometry x="1310" y="302.5" width="230" height="90" as="geometry" />
        </mxCell>
        <mxCell id="FA8MQbHwzfT2Bc9t9foA-52" value="Listener" style="rounded=0;whiteSpace=wrap;html=1;fontSize=16;fillColor=#f5f5f5;strokeColor=#666666;fontColor=#333333;fontStyle=1" vertex="1" parent="1">
          <mxGeometry x="1310" y="272.5" width="230" height="30" as="geometry" />
        </mxCell>
        <mxCell id="FA8MQbHwzfT2Bc9t9foA-59" value="" style="rounded=0;whiteSpace=wrap;html=1;fillColor=#f5f5f5;strokeColor=#666666;fontColor=#333333;" vertex="1" parent="1">
          <mxGeometry x="1870" y="120" width="190" height="310" as="geometry" />
        </mxCell>
        <mxCell id="FA8MQbHwzfT2Bc9t9foA-60" value="&lt;font style=&quot;font-size: 18px;&quot; color=&quot;#ffffff&quot;&gt;NATS Streaming&lt;/font&gt;" style="rounded=0;whiteSpace=wrap;html=1;fillColor=#8dc63f;strokeColor=#d6b656;fontStyle=1;fontSize=16;" vertex="1" parent="1">
          <mxGeometry x="1870" y="80" width="190" height="40" as="geometry" />
        </mxCell>
        <mxCell id="FA8MQbHwzfT2Bc9t9foA-61" value="&lt;font style=&quot;font-size: 16px;&quot;&gt;List of Channels&lt;/font&gt;" style="rounded=0;whiteSpace=wrap;html=1;fontSize=12;fillColor=#34a574;strokeColor=#6c8ebf;fontStyle=1" vertex="1" parent="1">
          <mxGeometry x="1880" y="140" width="170" height="30" as="geometry" />
        </mxCell>
        <mxCell id="FA8MQbHwzfT2Bc9t9foA-62" value="" style="rounded=0;whiteSpace=wrap;html=1;fontSize=12;fillColor=#dae8fc;strokeColor=#6c8ebf;fontStyle=1" vertex="1" parent="1">
          <mxGeometry x="1880" y="170" width="170" height="100" as="geometry" />
        </mxCell>
        <mxCell id="FA8MQbHwzfT2Bc9t9foA-63" value="&lt;font style=&quot;font-size: 14px;&quot;&gt;ticket:created&lt;/font&gt;" style="rounded=0;whiteSpace=wrap;html=1;fontSize=11;align=center;fontStyle=1" vertex="1" parent="1">
          <mxGeometry x="1890" y="180" width="150" height="70" as="geometry" />
        </mxCell>
        <mxCell id="FA8MQbHwzfT2Bc9t9foA-73" style="edgeStyle=orthogonalEdgeStyle;rounded=0;orthogonalLoop=1;jettySize=auto;html=1;exitX=1;exitY=0.5;exitDx=0;exitDy=0;entryX=-0.016;entryY=0.629;entryDx=0;entryDy=0;entryPerimeter=0;startArrow=classic;startFill=1;endArrow=none;endFill=0;" edge="1" parent="1" source="FA8MQbHwzfT2Bc9t9foA-70">
          <mxGeometry relative="1" as="geometry">
            <mxPoint x="1866.96" y="344.99" as="targetPoint" />
          </mxGeometry>
        </mxCell>
        <mxCell id="FA8MQbHwzfT2Bc9t9foA-70" value="&lt;b&gt;ticket:created&lt;br&gt;&lt;/b&gt;data : {id:123 , title: &quot;concert&quot;, price:20 }" style="rounded=0;whiteSpace=wrap;html=1;fontSize=14;fillColor=#f8cecc;strokeColor=#b85450;" vertex="1" parent="1">
          <mxGeometry x="1590" y="310" width="220" height="70" as="geometry" />
        </mxCell>
        <mxCell id="FA8MQbHwzfT2Bc9t9foA-75" value="&lt;font style=&quot;font-size: 16px;&quot;&gt;List of queue group&lt;/font&gt;" style="rounded=0;whiteSpace=wrap;html=1;fontSize=12;fillColor=#34a574;strokeColor=#6c8ebf;fontStyle=1" vertex="1" parent="1">
          <mxGeometry x="1880" y="290" width="170" height="30" as="geometry" />
        </mxCell>
        <mxCell id="FA8MQbHwzfT2Bc9t9foA-76" value="" style="rounded=0;whiteSpace=wrap;html=1;fontSize=12;fillColor=#dae8fc;strokeColor=#6c8ebf;fontStyle=1" vertex="1" parent="1">
          <mxGeometry x="1880" y="320" width="170" height="100" as="geometry" />
        </mxCell>
        <mxCell id="FA8MQbHwzfT2Bc9t9foA-77" value="&lt;font style=&quot;font-size: 14px;&quot;&gt;payments-service&lt;/font&gt;" style="rounded=0;whiteSpace=wrap;html=1;fontSize=11;align=center;fontStyle=1" vertex="1" parent="1">
          <mxGeometry x="1890" y="330" width="150" height="70" as="geometry" />
        </mxCell>
        <mxCell id="FA8MQbHwzfT2Bc9t9foA-78" value="" style="rounded=0;whiteSpace=wrap;html=1;fillColor=#f5f5f5;strokeColor=#666666;fontColor=#333333;" vertex="1" parent="1">
          <mxGeometry x="2270" y="165" width="290" height="200" as="geometry" />
        </mxCell>
        <mxCell id="FA8MQbHwzfT2Bc9t9foA-79" value="&lt;font style=&quot;font-size: 18px;&quot;&gt;K8S cluster&lt;/font&gt;" style="rounded=0;whiteSpace=wrap;html=1;fillColor=#3970e4;strokeColor=#d6b656;fontStyle=1;fontSize=16;fontColor=#FFFFFF;" vertex="1" parent="1">
          <mxGeometry x="2270" y="125" width="290" height="40" as="geometry" />
        </mxCell>
        <mxCell id="FA8MQbHwzfT2Bc9t9foA-80" value="&lt;font style=&quot;font-size: 16px;&quot;&gt;nats-srv&lt;/font&gt;" style="rounded=0;whiteSpace=wrap;html=1;fontSize=12;fillColor=#27aae1;strokeColor=#6c8ebf;fontStyle=1" vertex="1" parent="1">
          <mxGeometry x="2290" y="185" width="260" height="30" as="geometry" />
        </mxCell>
        <mxCell id="FA8MQbHwzfT2Bc9t9foA-81" value="" style="rounded=0;whiteSpace=wrap;html=1;fontSize=12;fillColor=#dae8fc;strokeColor=#6c8ebf;fontStyle=1" vertex="1" parent="1">
          <mxGeometry x="2290" y="215" width="260" height="130" as="geometry" />
        </mxCell>
        <mxCell id="FA8MQbHwzfT2Bc9t9foA-82" value="&lt;font style=&quot;font-size: 14px;&quot;&gt;&lt;font style=&quot;font-size: 14px;&quot;&gt;nats&lt;/font&gt;&lt;br&gt;&lt;font style=&quot;font-size: 14px;&quot;&gt;nats-streaming:0.17.0&lt;/font&gt;&lt;br&gt;&lt;/font&gt;" style="rounded=0;whiteSpace=wrap;html=1;fontSize=11;align=center;fontStyle=1" vertex="1" parent="1">
          <mxGeometry x="2310" y="225" width="220" height="110" as="geometry" />
        </mxCell>
        <mxCell id="FA8MQbHwzfT2Bc9t9foA-104" value="&lt;b&gt;Pod&lt;/b&gt;" style="text;html=1;strokeColor=none;fillColor=none;align=center;verticalAlign=middle;whiteSpace=wrap;rounded=0;" vertex="1" parent="1">
          <mxGeometry x="2310" y="225" width="50" height="20" as="geometry" />
        </mxCell>
        <mxCell id="FA8MQbHwzfT2Bc9t9foA-107" value="Port 4222" style="rounded=0;whiteSpace=wrap;html=1;shadow=0;fontSize=16;fontColor=#000000;align=center;" vertex="1" parent="1">
          <mxGeometry x="2055" y="225" width="75" height="30" as="geometry" />
        </mxCell>
        <mxCell id="FA8MQbHwzfT2Bc9t9foA-108" value="Port 8222" style="rounded=0;whiteSpace=wrap;html=1;shadow=0;fontSize=16;fontColor=#000000;align=center;" vertex="1" parent="1">
          <mxGeometry x="2055" y="305" width="75" height="30" as="geometry" />
        </mxCell>
        <mxCell id="FA8MQbHwzfT2Bc9t9foA-109" value="&lt;b&gt;service&lt;/b&gt;" style="text;html=1;strokeColor=none;fillColor=none;align=center;verticalAlign=middle;whiteSpace=wrap;rounded=0;" vertex="1" parent="1">
          <mxGeometry x="2290" y="185" width="50" height="20" as="geometry" />
        </mxCell>
        <mxCell id="FA8MQbHwzfT2Bc9t9foA-113" style="edgeStyle=orthogonalEdgeStyle;rounded=0;orthogonalLoop=1;jettySize=auto;html=1;exitX=0;exitY=0.5;exitDx=0;exitDy=0;entryX=1;entryY=0.5;entryDx=0;entryDy=0;" edge="1" parent="1">
          <mxGeometry relative="1" as="geometry">
            <mxPoint x="2210" y="234.5" as="sourcePoint" />
            <mxPoint x="2130" y="234.5" as="targetPoint" />
          </mxGeometry>
        </mxCell>
        <mxCell id="FA8MQbHwzfT2Bc9t9foA-110" value="Port 4222" style="rounded=0;whiteSpace=wrap;html=1;shadow=0;fontSize=16;fontColor=#000000;align=center;" vertex="1" parent="1">
          <mxGeometry x="2210" y="225" width="75" height="30" as="geometry" />
        </mxCell>
        <mxCell id="FA8MQbHwzfT2Bc9t9foA-111" value="Port 8222" style="rounded=0;whiteSpace=wrap;html=1;shadow=0;fontSize=16;fontColor=#000000;align=center;" vertex="1" parent="1">
          <mxGeometry x="2210" y="305" width="75" height="30" as="geometry" />
        </mxCell>
        <mxCell id="FA8MQbHwzfT2Bc9t9foA-114" style="edgeStyle=orthogonalEdgeStyle;rounded=0;orthogonalLoop=1;jettySize=auto;html=1;exitX=0;exitY=0.5;exitDx=0;exitDy=0;entryX=1;entryY=0.5;entryDx=0;entryDy=0;startArrow=classicThin;startFill=1;endArrow=none;endFill=0;" edge="1" parent="1">
          <mxGeometry relative="1" as="geometry">
            <mxPoint x="2210" y="244.5" as="sourcePoint" />
            <mxPoint x="2130" y="244.5" as="targetPoint" />
            <Array as="points">
              <mxPoint x="2150" y="244.5" />
              <mxPoint x="2150" y="244.5" />
            </Array>
          </mxGeometry>
        </mxCell>
        <mxCell id="FA8MQbHwzfT2Bc9t9foA-115" style="edgeStyle=orthogonalEdgeStyle;rounded=0;orthogonalLoop=1;jettySize=auto;html=1;exitX=0;exitY=0.5;exitDx=0;exitDy=0;entryX=1;entryY=0.5;entryDx=0;entryDy=0;" edge="1" parent="1">
          <mxGeometry relative="1" as="geometry">
            <mxPoint x="2210" y="314.5" as="sourcePoint" />
            <mxPoint x="2130" y="314.5" as="targetPoint" />
          </mxGeometry>
        </mxCell>
        <mxCell id="FA8MQbHwzfT2Bc9t9foA-116" style="edgeStyle=orthogonalEdgeStyle;rounded=0;orthogonalLoop=1;jettySize=auto;html=1;exitX=0;exitY=0.5;exitDx=0;exitDy=0;entryX=1;entryY=0.5;entryDx=0;entryDy=0;startArrow=classic;startFill=1;endArrow=none;endFill=0;" edge="1" parent="1">
          <mxGeometry relative="1" as="geometry">
            <mxPoint x="2210" y="324.5" as="sourcePoint" />
            <mxPoint x="2130" y="324.5" as="targetPoint" />
            <Array as="points">
              <mxPoint x="2150" y="324.5" />
              <mxPoint x="2150" y="324.5" />
            </Array>
          </mxGeometry>
        </mxCell>
        <mxCell id="FA8MQbHwzfT2Bc9t9foA-118" value="" style="endArrow=classic;html=1;rounded=0;exitX=1;exitY=0.5;exitDx=0;exitDy=0;entryX=0.005;entryY=0.4;entryDx=0;entryDy=0;entryPerimeter=0;endFill=1;" edge="1" parent="1" source="FA8MQbHwzfT2Bc9t9foA-45" target="FA8MQbHwzfT2Bc9t9foA-49">
          <mxGeometry width="50" height="50" relative="1" as="geometry">
            <mxPoint x="1600" y="260" as="sourcePoint" />
            <mxPoint x="1650" y="210" as="targetPoint" />
          </mxGeometry>
        </mxCell>
        <mxCell id="FA8MQbHwzfT2Bc9t9foA-119" value="ticket Listener" style="rounded=0;whiteSpace=wrap;html=1;fontSize=14;fontStyle=0;fillColor=#dae8fc;strokeColor=#6c8ebf;" vertex="1" parent="1">
          <mxGeometry x="1460" y="317.5" width="70" height="60" as="geometry" />
        </mxCell>
        <mxCell id="FA8MQbHwzfT2Bc9t9foA-120" value="Ticket created&lt;br&gt;Hanlder" style="rounded=0;whiteSpace=wrap;html=1;fontSize=16;" vertex="1" parent="1">
          <mxGeometry x="1320" y="315" width="120" height="60" as="geometry" />
        </mxCell>
        <mxCell id="FA8MQbHwzfT2Bc9t9foA-121" style="edgeStyle=orthogonalEdgeStyle;rounded=0;orthogonalLoop=1;jettySize=auto;html=1;exitX=1;exitY=0.5;exitDx=0;exitDy=0;fontSize=14;endArrow=none;endFill=0;startArrow=classic;startFill=1;" edge="1" parent="1">
          <mxGeometry relative="1" as="geometry">
            <mxPoint x="1441" y="347.5" as="sourcePoint" />
            <mxPoint x="1462" y="348" as="targetPoint" />
          </mxGeometry>
        </mxCell>
        <mxCell id="FA8MQbHwzfT2Bc9t9foA-122" value="" style="endArrow=none;html=1;rounded=0;exitX=1;exitY=0.5;exitDx=0;exitDy=0;entryX=0.005;entryY=0.4;entryDx=0;entryDy=0;entryPerimeter=0;endFill=0;startArrow=classic;startFill=1;" edge="1" parent="1">
          <mxGeometry width="50" height="50" relative="1" as="geometry">
            <mxPoint x="1529" y="353" as="sourcePoint" />
            <mxPoint x="1590" y="352" as="targetPoint" />
          </mxGeometry>
        </mxCell>
        <mxCell id="FA8MQbHwzfT2Bc9t9foA-123" value="" style="endArrow=none;html=1;rounded=0;strokeColor=#FFFFFF;" edge="1" parent="1">
          <mxGeometry width="50" height="50" relative="1" as="geometry">
            <mxPoint x="2000" y="40" as="sourcePoint" />
            <mxPoint x="2070" y="40" as="targetPoint" />
          </mxGeometry>
        </mxCell>
        <mxCell id="FA8MQbHwzfT2Bc9t9foA-124" value="" style="endArrow=none;html=1;rounded=0;strokeColor=#FFFFFF;" edge="1" parent="1">
          <mxGeometry width="50" height="50" relative="1" as="geometry">
            <mxPoint x="1980" y="470" as="sourcePoint" />
            <mxPoint x="2050" y="470" as="targetPoint" />
          </mxGeometry>
        </mxCell>
        <mxCell id="FA8MQbHwzfT2Bc9t9foA-125" value="" style="endArrow=none;html=1;rounded=0;strokeColor=#FFFFFF;" edge="1" parent="1">
          <mxGeometry width="50" height="50" relative="1" as="geometry">
            <mxPoint x="1260" y="210" as="sourcePoint" />
            <mxPoint x="1260" y="158.16000000000003" as="targetPoint" />
          </mxGeometry>
        </mxCell>
        <mxCell id="FA8MQbHwzfT2Bc9t9foA-126" value="" style="endArrow=none;html=1;rounded=0;strokeColor=#FFFFFF;" edge="1" parent="1">
          <mxGeometry width="50" height="50" relative="1" as="geometry">
            <mxPoint x="2600" y="179.34" as="sourcePoint" />
            <mxPoint x="2600" y="127.50000000000003" as="targetPoint" />
          </mxGeometry>
        </mxCell>
      </root>
    </mxGraphModel>
  </diagram>
</mxfile>
